{"title":"Jonah.Hex.2010.CAM.XviD-PrisM","uid":5649935,"size":758887749,"categoryP":"video","categoryS":"movies","magnet":"?xt=urn:btih:51f6774c9614bedb321881ac65b1ca1a6c529db3&amp;dn=Jonah.Hex.2010.CAM.XviD-PrisM&amp;tr=udp%3A%2F%2Ftracker.openbittorrent.com%3A80&amp;tr=udp%3A%2F%2Fopen.demonii.com%3A1337&amp;tr=udp%3A%2F%2Ftracker.coppersurfer.tk%3A6969&amp;tr=udp%3A%2F%2Fexodus.desync.com%3A6969","seeders":1,"leechers":0,"uploader":"hiest","files":54,"time":1277619929,"description":"\nThe U.S. military makes a scarred bounty hunter with warrants on his own head an offer he cannot refuse: in exchange for his freedom, he must stop a terrorist who is ready to unleash Hell on Earth.\n\n\n  &lt;a href=&quot;\nhttp://www.imdb.com/title/tt1075747/&quot; rel=&quot;nofollow&quot; target=&quot;_NEW&quot;&gt;\nhttp://www.imdb.com/title/tt1075747/&lt;/a&gt;\nMOVIEmeter: Up 357% in popularity this week\nGenre:Action | Drama | Thriller | Western\n\n\n \nVideo\nID : 0\nFormat : MPEG-4 Visual\nFormat profile : Advanced Simple@L5\nFormat settings, BVOP : Yes\nFormat settings, QPel : No\nFormat settings, GMC : No warppoints\nFormat settings, Matrix : Default (H.263)\nMuxing mode : Packed bitstream\nCodec ID : XVID\nCodec ID/Hint : XviD\nDuration : 1h 12mn\nBit rate : 1 206 Kbps\nWidth : 640 pixels\nHeight : 352 pixels\nDisplay aspect ratio : 16:9\nFrame rate : 29.970 fps\nResolution : 8 bits\nColorimetry : 4:2:0\nScan type : Progressive\nBits/(Pixel*Frame) : 0.179\nStream size : 627 MiB (88%)\nWriting library : XviD 1.2.1 (UTC 2008-12-04)\n\nAudio\nID : 1\nFormat : MPEG Audio\nFormat version : Version 1\nFormat profile : Layer 3\nMode : Joint stereo\nFormat_Settings_ModeExtension : MS Stereo\nCodec ID : 55\nCodec ID/Hint : MP3\nDuration : 1h 12mn\nBit rate mode : Constant\nBit rate : 160 Kbps\nChannel(s) : 2 channels\nSampling rate : 44.1 KHz\nStream size : 83.3 MiB (12%)\nAlignment : Split accross interleaves\nInterleave, duration : 33 ms (1.00 video frame)\nInterleave, preload duration : 500 ms\n\n\n\nScreenshots\n &lt;a href=&quot;\nhttp://postimg.com/image/17000/16975.jpg&quot; rel=&quot;nofollow&quot; target=&quot;_NEW&quot;&gt;\nhttp://postimg.com/image/17000/16975.jpg&lt;/a&gt;\n &lt;a href=&quot;\nhttp://postimg.com/image/17000/16976.jpg&quot; rel=&quot;nofollow&quot; target=&quot;_NEW&quot;&gt;\nhttp://postimg.com/image/17000/16976.jpg&lt;/a&gt;","torrent":{"xt":"urn:btih:51f6774c9614bedb321881ac65b1ca1a6c529db3","amp;dn":"Jonah.Hex.2010.CAM.XviD-PrisM","amp;tr":["udp%3A%2F%2Ftracker.openbittorrent.com%3A80","udp%3A%2F%2Fopen.demonii.com%3A1337","udp%3A%2F%2Ftracker.coppersurfer.tk%3A6969","udp%3A%2F%2Fexodus.desync.com%3A6969"],"infoHash":"51f6774c9614bedb321881ac65b1ca1a6c529db3","infoHashBuffer":{"type":"Buffer","data":[81,246,119,76,150,20,190,219,50,24,129,172,101,177,202,26,108,82,157,179]},"announce":[],"urlList":[]}}